<?xml version="1.0" encoding="UTF-8" standalone="no"?>
<!DOCTYPE svg PUBLIC "-//W3C//DTD SVG 1.1//EN" "http://www.w3.org/Graphics/SVG/1.1/DTD/svg11.dtd">
<svg width="100%" height="100%" viewBox="0 0 1280 720" version="1.1" xmlns="http://www.w3.org/2000/svg" xmlns:xlink="http://www.w3.org/1999/xlink" xml:space="preserve" xmlns:serif="http://www.serif.com/" style="fill-rule:evenodd;clip-rule:evenodd;stroke-miterlimit:10;">
    <rect id="all-hands-meeting-template" x="0" y="0" width="1280" height="720" style="fill:none;"/>
    <clipPath id="_clip1">
        <rect id="all-hands-meeting-template1" serif:id="all-hands-meeting-template" x="0" y="0" width="1280" height="720"/>
    </clipPath>
    <g clip-path="url(#_clip1)">
        <g transform="matrix(1.04235,0,0,1.033,-54.202,-23.759)">
            <rect x="52" y="23" width="1228" height="697" style="fill:rgb(124,65,186);"/>
        </g>
        <g transform="matrix(1.30116,0,0,1.30116,-18.1992,-8.01261)">
            <g id="Shape_2_copy_9" transform="matrix(0.456422,0,0,0.456422,65.6693,49.164)">
                <path d="M92.991,2.868L77.966,12.613L75.218,43.874L96.168,20.46L92.991,2.868Z" style="fill:white;"/>
            </g>
            <g id="Shape_2" transform="matrix(0.456422,0,0,0.456422,65.6693,49.164)">
                <path d="M52.881,20.611L54.627,51.952L69.341,62.135L73.082,44.636L52.881,20.611Z" style="fill:white;"/>
            </g>
            <g id="Shape_2_copy" transform="matrix(0.456422,0,0,0.456422,65.6693,49.164)">
                <path d="M76.199,44.478L79.378,62.071L94.403,52.325L97.15,21.065L76.199,44.478Z" style="fill:white;"/>
            </g>
            <g id="Shape_2_copy_2" transform="matrix(0.456422,0,0,0.456422,65.6693,49.164)">
                <path d="M96.74,54.377L86.564,69.044L104.062,72.78L128.077,52.647L96.74,54.377Z" style="fill:white;"/>
            </g>
            <g id="Shape_2_copy_3" transform="matrix(0.456422,0,0,0.456422,65.6693,49.164)">
                <path d="M104.229,75.995L86.639,79.177L96.38,94.21L127.638,96.954L104.229,75.995Z" style="fill:white;"/>
            </g>
            <g id="Shape_2_copy_4" transform="matrix(0.456422,0,0,0.456422,65.6693,49.164)">
                <path d="M94.327,96.547L79.66,86.372L75.92,103.869L96.055,127.882L94.327,96.547Z" style="fill:white;"/>
            </g>
            <g id="Shape_2_copy_5" transform="matrix(0.456422,0,0,0.456422,65.6693,49.164)">
                <path d="M69.637,86.551L54.601,96.292L51.858,127.552L72.819,104.143L69.637,86.551Z" style="fill:white;"/>
            </g>
            <g id="Shape_2_copy_6" transform="matrix(0.456422,0,0,0.456422,65.6693,49.164)">
                <path d="M44.832,75.723L20.822,95.856L52.156,94.134L62.329,79.463L44.832,75.723Z" style="fill:white;"/>
            </g>
            <g id="Shape_2_copy_7" transform="matrix(0.456422,0,0,0.456422,65.6693,49.164)">
                <path d="M52.519,54.298L21.26,51.555L44.668,72.522L62.26,69.337L52.519,54.298Z" style="fill:white;"/>
            </g>
            <g id="Shape_2_copy_15" transform="matrix(0.456422,0,0,0.456422,65.6693,49.164)">
                <path d="M20.661,52.519L3.071,55.701L12.813,70.74L44.068,73.486L20.661,52.519Z" style="fill:white;"/>
            </g>
            <g id="Shape_2_copy_8" transform="matrix(0.456422,0,0,0.456422,65.6693,49.164)">
                <path d="M51.769,20.859L37.083,10.666L33.349,28.181L53.512,52.229L51.769,20.859Z" style="fill:white;"/>
            </g>
            <g id="Shape_2_copy_10" transform="matrix(0.456422,0,0,0.456422,65.6693,49.164)">
                <path d="M120.508,33.174L96.492,53.306L127.831,51.58L138.008,36.912L120.508,33.174Z" style="fill:white;"/>
            </g>
            <g id="Shape_2_copy_11" transform="matrix(0.456422,0,0,0.456422,65.6693,49.164)">
                <path d="M136.084,77.766L104.828,75.02L128.235,95.985L145.827,92.803L136.084,77.766Z" style="fill:white;"/>
            </g>
            <g id="Shape_2_copy_12" transform="matrix(0.456422,0,0,0.456422,65.6693,49.164)">
                <path d="M95.395,96.297L97.121,127.632L111.792,137.807L115.529,120.31L95.395,96.297Z" style="fill:white;"/>
            </g>
            <g id="Shape_2_copy_13" transform="matrix(0.456422,0,0,0.456422,65.6693,49.164)">
                <path d="M52.715,128.042L55.898,145.635L70.935,135.892L73.68,104.631L52.715,128.042Z" style="fill:white;"/>
            </g>
            <g id="Shape_2_copy_14" transform="matrix(0.456422,0,0,0.456422,65.6693,49.164)">
                <path d="M21.067,96.926L10.892,111.597L28.393,115.338L52.405,95.203L21.067,96.926Z" style="fill:white;"/>
            </g>
            <g id="Shape_2_copy_16" transform="matrix(0.456422,0,0,0.456422,65.6693,49.164)">
                <path d="M29.161,115.82L50.875,127.297L53.511,95.657L29.161,115.82Z" style="fill:white;"/>
            </g>
            <g id="Shape_2_copy_17" transform="matrix(0.456422,0,0,0.456422,65.6693,49.164)">
                <path d="M13.034,71.622L20.272,95.091L44.509,74.583L13.034,71.622Z" style="fill:white;"/>
            </g>
            <g id="Shape_2_copy_18" transform="matrix(0.456422,0,0,0.456422,65.6693,49.164)">
                <path d="M32.883,28.959L21.442,50.639L53.057,53.311L32.883,28.959Z" style="fill:white;"/>
            </g>
            <g id="Shape_2_copy_19" transform="matrix(0.456422,0,0,0.456422,65.6693,49.164)">
                <path d="M53.638,20.054L74.121,44.316L77.065,12.82L53.638,20.054Z" style="fill:white;"/>
            </g>
            <g id="Shape_2_copy_20" transform="matrix(0.456422,0,0,0.456422,65.6693,49.164)">
                <path d="M98.07,21.242L95.398,52.87L119.743,32.687L98.07,21.242Z" style="fill:white;"/>
            </g>
            <g id="Shape_2_copy_21" transform="matrix(0.456422,0,0,0.456422,65.6693,49.164)">
                <path d="M128.651,53.444L104.39,73.926L135.884,76.867L128.651,53.444Z" style="fill:white;"/>
            </g>
            <g id="Shape_2_copy_22" transform="matrix(0.456422,0,0,0.456422,65.6693,49.164)">
                <path d="M95.832,95.207L116.014,119.55L127.465,97.875L95.832,95.207Z" style="fill:white;"/>
            </g>
            <g id="Shape_2_copy_23" transform="matrix(0.456422,0,0,0.456422,65.6693,49.164)">
                <path d="M74.778,104.193L71.837,135.685L95.264,128.454L74.778,104.193Z" style="fill:white;"/>
            </g>
            <g transform="matrix(0.456422,0,0,0.456422,65.6693,49.164)">
                <path d="M195.766,101.681C192.692,101.681 189.865,101.108 187.284,99.963C184.704,98.818 182.478,97.223 180.608,95.178C178.738,93.134 177.28,90.706 176.237,87.893C175.193,85.08 174.671,81.992 174.671,78.629L174.671,76.758C174.671,73.134 175.214,69.85 176.302,66.907C177.389,63.964 178.861,61.456 180.717,59.382C182.572,57.309 184.711,55.707 187.132,54.576C189.553,53.445 192.112,52.88 194.809,52.88C197.795,52.88 200.449,53.416 202.768,54.489C205.088,55.562 207.038,57.055 208.618,58.969C210.199,60.883 211.395,63.159 212.207,65.798C213.019,68.436 213.425,71.322 213.425,74.453L213.425,77.628L179.847,77.628L179.847,78.629C179.847,81.209 180.238,83.638 181.021,85.914C181.804,88.19 182.906,90.169 184.327,91.851C185.747,93.533 187.444,94.86 189.415,95.831C191.387,96.802 193.576,97.288 195.983,97.288C198.767,97.288 201.224,96.781 203.356,95.766C205.487,94.751 207.422,93.127 209.162,90.894L212.424,93.373C211.641,94.504 210.735,95.577 209.706,96.592C208.676,97.607 207.48,98.491 206.118,99.245C204.755,99.999 203.218,100.594 201.507,101.029C199.796,101.463 197.882,101.681 195.766,101.681ZM194.809,57.316C192.837,57.316 191.01,57.693 189.329,58.447C187.647,59.201 186.161,60.274 184.87,61.666C183.58,63.058 182.522,64.732 181.695,66.689C180.869,68.647 180.311,70.814 180.021,73.192L208.249,73.192L208.249,72.626C208.191,70.655 207.872,68.748 207.292,66.907C206.712,65.066 205.864,63.435 204.747,62.014C203.631,60.593 202.246,59.455 200.594,58.599C198.941,57.744 197.013,57.316 194.809,57.316Z" style="fill:white;fill-rule:nonzero;"/>
            </g>
            <g transform="matrix(0.456422,0,0,0.456422,65.6693,49.164)">
                <path d="M220.688,76.584C220.688,73.163 221.188,70.002 222.189,67.103C223.189,64.203 224.603,61.702 226.43,59.6C228.256,57.497 230.46,55.852 233.041,54.663C235.621,53.474 238.492,52.88 241.653,52.88C244.871,52.88 247.778,53.474 250.373,54.663C252.969,55.852 255.18,57.497 257.006,59.6C258.833,61.702 260.24,64.203 261.225,67.103C262.211,70.002 262.704,73.163 262.704,76.584L262.704,78.02C262.704,81.441 262.211,84.602 261.225,87.502C260.24,90.401 258.833,92.902 257.006,95.005C255.18,97.107 252.976,98.745 250.395,99.919C247.815,101.094 244.929,101.681 241.74,101.681C238.55,101.681 235.665,101.094 233.084,99.919C230.504,98.745 228.293,97.107 226.451,95.005C224.61,92.902 223.189,90.401 222.189,87.502C221.188,84.602 220.688,81.441 220.688,78.02L220.688,76.584ZM225.908,78.02C225.908,80.6 226.256,83.058 226.952,85.392C227.647,87.726 228.662,89.771 229.996,91.525C231.33,93.279 232.983,94.678 234.955,95.722C236.926,96.766 239.188,97.288 241.74,97.288C244.291,97.288 246.546,96.766 248.503,95.722C250.46,94.678 252.106,93.279 253.44,91.525C254.774,89.771 255.789,87.726 256.484,85.392C257.18,83.058 257.528,80.6 257.528,78.02L257.528,76.584C257.528,74.062 257.18,71.633 256.484,69.299C255.789,66.965 254.774,64.913 253.44,63.145C252.106,61.376 250.446,59.962 248.46,58.904C246.473,57.845 244.204,57.316 241.653,57.316C239.13,57.316 236.89,57.845 234.933,58.904C232.976,59.962 231.33,61.376 229.996,63.145C228.662,64.913 227.647,66.965 226.952,69.299C226.256,71.633 225.908,74.062 225.908,76.584L225.908,78.02Z" style="fill:white;fill-rule:nonzero;"/>
            </g>
            <g transform="matrix(0.456422,0,0,0.456422,65.6693,49.164)">
                <path d="M301.632,88.85C301.632,87.893 301.465,86.936 301.132,85.979C300.798,85.022 300.175,84.116 299.262,83.261C298.348,82.406 297.072,81.608 295.434,80.869C293.796,80.129 291.672,79.484 289.062,78.933C286.452,78.382 284.125,77.744 282.081,77.019C280.037,76.294 278.312,75.417 276.905,74.388C275.499,73.359 274.433,72.133 273.708,70.713C272.984,69.292 272.621,67.625 272.621,65.711C272.621,63.971 273.005,62.318 273.774,60.752C274.542,59.187 275.644,57.824 277.079,56.664C278.515,55.504 280.254,54.583 282.299,53.902C284.343,53.22 286.641,52.88 289.193,52.88C291.918,52.88 294.361,53.235 296.521,53.945C298.682,54.656 300.509,55.642 302.002,56.903C303.495,58.164 304.633,59.65 305.416,61.361C306.199,63.072 306.591,64.928 306.591,66.929L301.371,66.929C301.371,65.711 301.103,64.522 300.566,63.362C300.03,62.202 299.247,61.18 298.218,60.296C297.188,59.411 295.913,58.694 294.39,58.143C292.868,57.592 291.135,57.316 289.193,57.316C287.163,57.316 285.43,57.563 283.995,58.056C282.56,58.549 281.385,59.187 280.472,59.969C279.558,60.752 278.892,61.629 278.471,62.601C278.051,63.572 277.84,64.551 277.84,65.537C277.84,66.581 278,67.53 278.319,68.386C278.638,69.241 279.254,70.038 280.167,70.778C281.081,71.517 282.357,72.199 283.995,72.822C285.633,73.446 287.772,74.062 290.41,74.671C293.252,75.338 295.702,76.077 297.761,76.889C299.82,77.701 301.523,78.665 302.872,79.781C304.22,80.898 305.22,82.174 305.873,83.609C306.525,85.044 306.851,86.704 306.851,88.589C306.851,90.532 306.446,92.308 305.634,93.917C304.822,95.526 303.662,96.904 302.154,98.049C300.646,99.195 298.819,100.086 296.674,100.724C294.528,101.362 292.136,101.681 289.497,101.681C286.51,101.681 283.872,101.297 281.581,100.528C279.29,99.76 277.362,98.723 275.796,97.418C274.23,96.114 273.049,94.613 272.251,92.917C271.454,91.22 271.055,89.459 271.055,87.632L276.275,87.632C276.391,89.488 276.869,91.032 277.71,92.264C278.551,93.497 279.595,94.483 280.842,95.222C282.088,95.961 283.473,96.491 284.995,96.81C286.518,97.129 288.018,97.288 289.497,97.288C291.469,97.288 293.209,97.056 294.716,96.592C296.224,96.128 297.493,95.505 298.522,94.722C299.552,93.939 300.327,93.04 300.849,92.025C301.371,91.01 301.632,89.952 301.632,88.85Z" style="fill:white;fill-rule:nonzero;"/>
            </g>
            <g transform="matrix(0.456422,0,0,0.456422,65.6693,49.164)">
                <path d="M317.421,100.811L317.421,37.483L336.906,37.483C341.169,37.483 345.076,38.215 348.628,39.679C352.18,41.143 355.225,43.202 357.762,45.855C360.299,48.509 362.278,51.691 363.699,55.402C365.12,59.114 365.83,63.232 365.83,67.755L365.83,70.626C365.83,75.149 365.127,79.259 363.721,82.956C362.315,86.654 360.328,89.829 357.762,92.482C355.196,95.135 352.13,97.187 348.563,98.636C344.996,100.086 341.067,100.811 336.776,100.811L317.421,100.811ZM330.469,48.052L330.469,90.329L336.776,90.329C341.937,90.329 345.866,88.625 348.563,85.218C351.26,81.811 352.608,76.947 352.608,70.626L352.608,67.668C352.608,61.231 351.274,56.352 348.607,53.032C345.939,49.712 342.039,48.052 336.906,48.052L330.469,48.052Z" style="fill:white;fill-rule:nonzero;"/>
            </g>
            <g transform="matrix(0.456422,0,0,0.456422,65.6693,49.164)">
                <path d="M410.152,87.763L387.273,87.763L382.924,100.811L369.049,100.811L392.623,37.483L404.715,37.483L428.42,100.811L414.545,100.811L410.152,87.763ZM390.796,77.193L406.629,77.193L398.669,53.489L390.796,77.193Z" style="fill:white;fill-rule:nonzero;"/>
            </g>
            <g transform="matrix(0.456422,0,0,0.456422,65.6693,49.164)">
                <path d="M483.136,79.716C482.904,82.935 482.179,85.892 480.961,88.589C479.743,91.286 478.062,93.598 475.916,95.526C473.77,97.455 471.168,98.963 468.109,100.05C465.049,101.137 461.563,101.681 457.648,101.681C453.589,101.681 449.942,100.978 446.709,99.571C443.476,98.165 440.736,96.143 438.489,93.504C436.241,90.865 434.516,87.668 433.313,83.913C432.109,80.158 431.508,75.947 431.508,71.278L431.508,67.103C431.508,62.434 432.131,58.215 433.378,54.446C434.625,50.676 436.386,47.472 438.663,44.833C440.939,42.195 443.701,40.165 446.948,38.744C450.196,37.323 453.82,36.613 457.822,36.613C461.766,36.613 465.252,37.171 468.283,38.287C471.313,39.404 473.886,40.955 476.003,42.941C478.12,44.927 479.772,47.291 480.961,50.031C482.15,52.771 482.904,55.75 483.223,58.969L470.175,58.969C470.03,57.084 469.703,55.417 469.196,53.967C468.688,52.517 467.956,51.299 466.999,50.314C466.043,49.328 464.81,48.581 463.302,48.074C461.795,47.566 459.968,47.312 457.822,47.312C453.415,47.312 450.131,48.915 447.97,52.119C445.81,55.323 444.73,60.288 444.73,67.016L444.73,71.278C444.73,74.555 444.969,77.425 445.448,79.89C445.926,82.355 446.68,84.414 447.709,86.066C448.739,87.719 450.073,88.959 451.711,89.785C453.349,90.612 455.328,91.025 457.648,91.025C459.707,91.025 461.483,90.793 462.976,90.329C464.469,89.865 465.716,89.162 466.717,88.219C467.717,87.277 468.493,86.095 469.044,84.674C469.595,83.254 469.943,81.601 470.088,79.716L483.136,79.716Z" style="fill:white;fill-rule:nonzero;"/>
            </g>
        </g>
        <g transform="matrix(1,0,0,1,116.071,80.1426)">
            <text x="55px" y="197.5px" style="font-family:'Roboto-Medium', 'Roboto';font-weight:500;font-size:90px;fill:white;">All Hands</text>
            <text x="465.625px" y="197.5px" style="font-family:'Roboto-Thin', 'Roboto';font-weight:250;font-size:90px;fill:white;">Meeting</text>
        </g>
        <g transform="matrix(1,0,0,1,104,75)">
            <text x="64px" y="329px" style="font-family:'Roboto-Medium', 'Roboto';font-weight:500;font-size:64px;fill:white;">Monda<tspan x="262.344px 288.281px " y="329px 329px ">y,</tspan> Januar<tspan x="517.281px " y="329px ">y</tspan> 14, 2:00 PM UT<tspan x="1001.72px " y="329px ">C</tspan></text>
        </g>
        <g transform="matrix(1,0,0,1,-41,-53.3758)">
            <text x="209px" y="518.857px" style="font-family:'Roboto-Medium', 'Roboto';font-weight:500;font-size:36px;fill:white;">Meeting Room 1</text>
            <text x="482.533px" y="518.857px" style="font-family:'Roboto-Thin', 'Roboto';font-weight:250;font-size:36px;fill:white;">/<tspan x="492.342px " y="518.857px ">/</tspan> discor<tspan x="609.518px " y="518.857px ">d</tspan>.io/eosdac</text>
        </g>
        <g id="Line" transform="matrix(5.30177,0,0,5.30177,861.157,397.489)">
            <g opacity="0.2">
                <g transform="matrix(1,0,0,1,-46.211,14.5234)">
                    <g transform="matrix(1,0,0,1,28.158,43.4748)">
                        <path d="M0,20.036L0,1.036C0,0.484 0.448,0 1,0L15,0C15.553,0 16,0.484 16,1.036L16,20.036" style="fill:none;stroke:white;stroke-width:0.57px;"/>
                    </g>
                    <g transform="matrix(1,0,0,1,42.658,40.4747)">
                        <path d="M0,3L0,1.036C0,0.484 -0.447,0 -1,0L-12.262,0C-12.814,0 -13.5,0.484 -13.5,1.036L-13.5,3L0,3Z" style="fill:none;stroke:white;stroke-width:0.57px;stroke-linecap:round;stroke-linejoin:round;"/>
                    </g>
                    <g transform="matrix(0.0891622,0.996017,0.996017,-0.0891622,35.6277,15.9673)">
                        <path d="M-4.275,-4.675L5.112,-4.675" style="fill:none;stroke:white;stroke-width:0.57px;stroke-linecap:round;stroke-linejoin:round;"/>
                    </g>
                    <g transform="matrix(1,0,0,1,51.1741,22.2507)">
                        <path d="M0,1.683C-0.781,0.902 -2.047,0.902 -2.828,1.683C-3.178,2.033 -5.648,4.812 -6.235,4.779C-7.497,4.709 -8.584,2.463 -8.27,0.131L-6.801,-12.201C-6.637,-13.294 -7.39,-14.312 -8.482,-14.476C-9.574,-14.64 -10.593,-13.887 -10.756,-12.795L-12.272,-1.219L-11.946,-14.33C-11.869,-15.431 -12.7,-16.387 -13.802,-16.464C-14.903,-16.541 -15.859,-15.711 -15.937,-14.609L-16.17,-1.22L-16.783,-13.109C-16.86,-14.211 -17.816,-15.041 -18.918,-14.964C-20.02,-14.887 -20.851,-13.931 -20.773,-12.83L-20.584,-10.124C-20.999,-10.667 -21.674,-10.989 -22.401,-10.904C-23.499,-10.776 -24.284,-9.783 -24.156,-8.686L-22.778,4.841C-22.778,10.122 -21.016,14.724 -21.016,15.027L-21.016,18.224L-9.278,18.224C-9.278,15.839 -7.17,13.78 0,4.512C0.781,3.731 0.781,2.464 0,1.683Z" style="fill:none;stroke:white;stroke-width:0.57px;stroke-linecap:round;stroke-linejoin:round;"/>
                    </g>
                    <g transform="matrix(1,0,0,1,56.658,47.0249)">
                        <path d="M0,13.692L0,0.756C0,0.338 0.339,0 0.758,0L10.743,0C11.161,0 11.5,0.338 11.5,0.756L11.5,13.692" style="fill:none;stroke:white;stroke-width:0.57px;"/>
                    </g>
                    <g transform="matrix(1,0,0,1,67.6658,44.5245)">
                        <path d="M0,2.5L0,0.757C0,0.339 -0.339,0 -0.758,0L-9.75,0C-10.168,0 -10.508,0.339 -10.508,0.757L-10.508,2.5L0,2.5Z" style="fill:none;stroke:white;stroke-width:0.57px;stroke-linecap:round;stroke-linejoin:round;"/>
                    </g>
                    <g transform="matrix(1,0,0,1,73.4647,30.7206)">
                        <path d="M0,1.276C-0.591,0.684 -1.551,0.684 -2.142,1.276C-2.407,1.541 -4.278,3.646 -4.723,3.621C-5.678,3.568 -6.502,1.866 -6.264,0.1L-5.151,-9.241C-5.027,-10.068 -5.597,-10.839 -6.424,-10.963C-7.251,-11.087 -8.023,-10.517 -8.147,-9.69L-9.295,-0.923L-9.048,-10.852C-8.99,-11.687 -9.619,-12.411 -10.454,-12.47C-11.288,-12.528 -12.012,-11.898 -12.07,-11.064L-12.247,-0.924L-12.712,-9.928C-12.77,-10.763 -13.494,-11.391 -14.329,-11.333C-15.163,-11.275 -15.792,-10.551 -15.734,-9.717L-15.59,-7.667C-15.904,-8.078 -16.416,-8.323 -16.967,-8.258C-17.798,-8.161 -18.393,-7.409 -18.296,-6.578L-17.252,3.668C-17.252,7.667 -15.738,11.079 -15.807,11.382L-15.807,13.804L-7.027,13.804C-7.027,11.998 -5.431,10.438 0,3.418C0.591,2.827 0.591,1.867 0,1.276Z" style="fill:none;stroke:white;stroke-width:0.57px;stroke-linecap:round;stroke-linejoin:round;"/>
                    </g>
                    <g transform="matrix(0.0872113,0.99619,0.99619,-0.0872113,61.7708,26.0427)">
                        <path d="M-3.318,-3.621L3.952,-3.621" style="fill:none;stroke:white;stroke-width:0.57px;stroke-linecap:round;stroke-linejoin:round;"/>
                    </g>
                    <g transform="matrix(1,0,0,1,7.65799,46.9751)">
                        <path d="M0,13.692L0,0.756C0,0.338 0.339,0 0.758,0L10.743,0C11.161,0 11.5,0.338 11.5,0.756L11.5,13.692" style="fill:none;stroke:white;stroke-width:0.57px;"/>
                    </g>
                    <g transform="matrix(1,0,0,1,18.6658,44.4747)">
                        <path d="M0,2.5L0,0.757C0,0.339 -0.339,0 -0.758,0L-9.75,0C-10.168,0 -10.508,0.339 -10.508,0.757L-10.508,2.5L0,2.5Z" style="fill:none;stroke:white;stroke-width:0.57px;stroke-linecap:round;stroke-linejoin:round;"/>
                    </g>
                    <g transform="matrix(1,0,0,1,24.4647,30.6713)">
                        <path d="M0,1.275C-0.591,0.684 -1.551,0.684 -2.142,1.275C-2.407,1.54 -4.278,3.645 -4.723,3.62C-5.678,3.567 -6.502,1.865 -6.264,0.099L-5.151,-9.241C-5.027,-10.068 -5.597,-10.84 -6.424,-10.964C-7.251,-11.088 -8.023,-10.518 -8.147,-9.691L-9.295,-0.923L-9.048,-10.853C-8.99,-11.688 -9.619,-12.412 -10.454,-12.47C-11.288,-12.528 -12.012,-11.899 -12.07,-11.064L-12.247,-0.924L-12.712,-9.929C-12.77,-10.763 -13.494,-11.392 -14.329,-11.334C-15.163,-11.275 -15.792,-10.552 -15.734,-9.717L-15.59,-7.668C-15.904,-8.079 -16.416,-8.323 -16.967,-8.259C-17.798,-8.162 -18.393,-7.41 -18.296,-6.579L-17.252,3.667C-17.252,7.667 -15.738,11.079 -15.807,11.381L-15.807,13.803L-7.027,13.803C-7.027,11.997 -5.431,10.437 0,3.417C0.591,2.826 0.591,1.867 0,1.275Z" style="fill:none;stroke:white;stroke-width:0.57px;stroke-linecap:round;stroke-linejoin:round;"/>
                    </g>
                    <g transform="matrix(0.0872113,0.99619,0.99619,-0.0872113,12.7708,25.9929)">
                        <path d="M-3.318,-3.621L3.952,-3.621" style="fill:none;stroke:white;stroke-width:0.57px;stroke-linecap:round;stroke-linejoin:round;"/>
                    </g>
                </g>
                <g transform="matrix(1,0,0,1,29.2355,14.7121)">
                    <g transform="matrix(1,0,0,1,28.158,43.4748)">
                        <path d="M0,20.036L0,1.036C0,0.484 0.448,0 1,0L15,0C15.553,0 16,0.484 16,1.036L16,20.036" style="fill:none;stroke:white;stroke-width:0.57px;"/>
                    </g>
                    <g transform="matrix(1,0,0,1,42.658,40.4747)">
                        <path d="M0,3L0,1.036C0,0.484 -0.447,0 -1,0L-12.262,0C-12.814,0 -13.5,0.484 -13.5,1.036L-13.5,3L0,3Z" style="fill:none;stroke:white;stroke-width:0.57px;stroke-linecap:round;stroke-linejoin:round;"/>
                    </g>
                    <g transform="matrix(0.0891622,0.996017,0.996017,-0.0891622,35.6277,15.9673)">
                        <path d="M-4.275,-4.675L5.112,-4.675" style="fill:none;stroke:white;stroke-width:0.57px;stroke-linecap:round;stroke-linejoin:round;"/>
                    </g>
                    <g transform="matrix(1,0,0,1,51.1741,22.2507)">
                        <path d="M0,1.683C-0.781,0.902 -2.047,0.902 -2.828,1.683C-3.178,2.033 -5.648,4.812 -6.235,4.779C-7.497,4.709 -8.584,2.463 -8.27,0.131L-6.801,-12.201C-6.637,-13.294 -7.39,-14.312 -8.482,-14.476C-9.574,-14.64 -10.593,-13.887 -10.756,-12.795L-12.272,-1.219L-11.946,-14.33C-11.869,-15.431 -12.7,-16.387 -13.802,-16.464C-14.903,-16.541 -15.859,-15.711 -15.937,-14.609L-16.17,-1.22L-16.783,-13.109C-16.86,-14.211 -17.816,-15.041 -18.918,-14.964C-20.02,-14.887 -20.851,-13.931 -20.773,-12.83L-20.584,-10.124C-20.999,-10.667 -21.674,-10.989 -22.401,-10.904C-23.499,-10.776 -24.284,-9.783 -24.156,-8.686L-22.778,4.841C-22.778,10.122 -21.016,14.724 -21.016,15.027L-21.016,18.224L-9.278,18.224C-9.278,15.839 -7.17,13.78 0,4.512C0.781,3.731 0.781,2.464 0,1.683Z" style="fill:none;stroke:white;stroke-width:0.57px;stroke-linecap:round;stroke-linejoin:round;"/>
                    </g>
                    <g transform="matrix(1,0,0,1,7.65799,46.9751)">
                        <path d="M0,13.692L0,0.756C0,0.338 0.339,0 0.758,0L10.743,0C11.161,0 11.5,0.338 11.5,0.756L11.5,13.692" style="fill:none;stroke:white;stroke-width:0.57px;"/>
                    </g>
                    <g transform="matrix(1,0,0,1,18.6658,44.4747)">
                        <path d="M0,2.5L0,0.757C0,0.339 -0.339,0 -0.758,0L-9.75,0C-10.168,0 -10.508,0.339 -10.508,0.757L-10.508,2.5L0,2.5Z" style="fill:none;stroke:white;stroke-width:0.57px;stroke-linecap:round;stroke-linejoin:round;"/>
                    </g>
                    <g transform="matrix(1,0,0,1,24.4647,30.6713)">
                        <path d="M0,1.275C-0.591,0.684 -1.551,0.684 -2.142,1.275C-2.407,1.54 -4.278,3.645 -4.723,3.62C-5.678,3.567 -6.502,1.865 -6.264,0.099L-5.151,-9.241C-5.027,-10.068 -5.597,-10.84 -6.424,-10.964C-7.251,-11.088 -8.023,-10.518 -8.147,-9.691L-9.295,-0.923L-9.048,-10.853C-8.99,-11.688 -9.619,-12.412 -10.454,-12.47C-11.288,-12.528 -12.012,-11.899 -12.07,-11.064L-12.247,-0.924L-12.712,-9.929C-12.77,-10.763 -13.494,-11.392 -14.329,-11.334C-15.163,-11.275 -15.792,-10.552 -15.734,-9.717L-15.59,-7.668C-15.904,-8.079 -16.416,-8.323 -16.967,-8.259C-17.798,-8.162 -18.393,-7.41 -18.296,-6.579L-17.252,3.667C-17.252,7.667 -15.738,11.079 -15.807,11.381L-15.807,13.803L-7.027,13.803C-7.027,11.997 -5.431,10.437 0,3.417C0.591,2.826 0.591,1.867 0,1.275Z" style="fill:none;stroke:white;stroke-width:0.57px;stroke-linecap:round;stroke-linejoin:round;"/>
                    </g>
                    <g transform="matrix(0.0872113,0.99619,0.99619,-0.0872113,12.7708,25.9929)">
                        <path d="M-3.318,-3.621L3.952,-3.621" style="fill:none;stroke:white;stroke-width:0.57px;stroke-linecap:round;stroke-linejoin:round;"/>
                    </g>
                </g>
            </g>
        </g>
    </g>
</svg>
