<?xml version="1.0" encoding="UTF-8" standalone="no"?><!DOCTYPE svg PUBLIC "-//W3C//DTD SVG 1.1//EN" "http://www.w3.org/Graphics/SVG/1.1/DTD/svg11.dtd"><svg width="100%" height="100%" viewBox="0 0 1280 720" version="1.1" xmlns="http://www.w3.org/2000/svg" xmlns:xlink="http://www.w3.org/1999/xlink" xml:space="preserve" xmlns:serif="http://www.serif.com/" style="fill-rule:evenodd;clip-rule:evenodd;stroke-linecap:round;stroke-linejoin:round;stroke-miterlimit:10;"><rect id="management-meeting-template" x="0" y="0" width="1280" height="720" style="fill:none;"/><clipPath id="_clip1"><rect x="0" y="0" width="1280" height="720"/></clipPath><g clip-path="url(#_clip1)"><rect x="0" y="0" width="1280" height="720" style="fill:#272b35;"/><g id="Line"><path d="M1106.92,620.492l-99.39,0c-4.574,0 -8.282,-3.708 -8.282,-8.282l0,-37.272c0,-2.286 1.852,-4.141 4.141,-4.141l107.672,0c2.289,0 4.142,1.855 4.142,4.141l0,37.272c0,4.574 -3.708,8.282 -8.283,8.282Z" style="fill:none;stroke:#93959a;stroke-width:3px;"/><path d="M1011.67,608.068l8.283,0" style="fill:none;stroke:#93959a;stroke-width:3px;"/><path d="M1011.67,595.645l8.283,0" style="fill:none;stroke:#93959a;stroke-width:3px;"/><path d="M1011.67,583.221l8.283,0" style="fill:none;stroke:#93959a;stroke-width:3px;"/><path d="M1028.24,595.645l8.283,0" style="fill:none;stroke:#93959a;stroke-width:3px;"/><path d="M1028.24,583.221l8.283,0" style="fill:none;stroke:#93959a;stroke-width:3px;"/><path d="M1044.8,595.645l8.283,0" style="fill:none;stroke:#93959a;stroke-width:3px;"/><path d="M1044.8,583.221l8.283,0" style="fill:none;stroke:#93959a;stroke-width:3px;"/><path d="M1061.37,595.645l8.283,0" style="fill:none;stroke:#93959a;stroke-width:3px;"/><path d="M1061.37,583.221l8.283,0" style="fill:none;stroke:#93959a;stroke-width:3px;"/><path d="M1077.93,595.645l8.283,0" style="fill:none;stroke:#93959a;stroke-width:3px;"/><path d="M1077.93,583.221l8.283,0" style="fill:none;stroke:#93959a;stroke-width:3px;"/><path d="M1094.5,608.068l8.283,0" style="fill:none;stroke:#93959a;stroke-width:3px;"/><path d="M1094.5,595.645l8.283,0" style="fill:none;stroke:#93959a;stroke-width:3px;"/><path d="M1094.5,583.221l8.283,0" style="fill:none;stroke:#93959a;stroke-width:3px;"/><path d="M1028.24,608.068l57.978,0" style="fill:none;stroke:#93959a;stroke-width:3px;"/><path d="M1225,465.364c0,0.773 -0.055,1.574 -0.221,2.374c0.276,-4.5 -3.23,-8.752 -8.255,-8.752l-318.6,0c-5.025,0 -8.531,4.252 -8.255,8.752c-1.463,-8.614 5.163,-17.034 14.495,-17.034l306.121,0c8.476,0 14.715,6.957 14.715,14.66Z" style="fill:none;stroke:#93959a;stroke-width:3px;"/><path d="M1080,554.235l-45.554,0c-9.911,0 -17.614,-8.642 -16.454,-18.495l1.711,-14.635l75.04,0l1.712,14.635c1.159,9.826 -6.544,18.495 -16.455,18.495Z" style="fill:none;stroke:#93959a;stroke-width:3px;"/><path d="M1224.78,467.738c-0.193,1.27 -0.58,2.54 -1.16,3.782l-22.28,37.161l-288.231,0l-22.279,-37.161c-0.58,-1.242 -0.967,-2.512 -1.16,-3.782c-0.276,-4.501 3.23,-8.752 8.255,-8.752l318.6,0c5.025,0 8.531,4.251 8.255,8.752Z" style="fill:none;stroke:#93959a;stroke-width:3px;"/><path d="M890.829,471.52c-0.746,-1.242 -1.105,-2.512 -1.16,-3.782c0.194,1.27 0.58,2.54 1.16,3.782Z" style="fill:none;stroke:#93959a;stroke-width:3px;"/><path d="M1224.78,467.738c-0.055,1.27 -0.414,2.54 -1.16,3.782c0.58,-1.242 0.967,-2.512 1.16,-3.782Z" style="fill:none;stroke:#93959a;stroke-width:3px;"/><path d="M1201.34,508.681l-3.837,6.378c-2.237,3.754 -6.295,6.046 -10.657,6.046l-10.795,0c0,-0.69 -0.166,-1.381 -0.525,-2.016c-0.717,-1.294 -2.098,-2.125 -3.616,-2.125l-28.989,0c-1.739,0 -3.285,1.076 -3.893,2.678l-0.552,1.463l-210.872,0c-4.362,0 -8.421,-2.292 -10.657,-6.046l-3.838,-6.378l288.231,0Z" style="fill:none;stroke:#93959a;stroke-width:3px;"/><path d="M1176.05,521.105c0,0.745 -0.22,1.518 -0.635,2.211l-5.162,8.283c-0.773,1.184 -2.099,1.93 -3.507,1.93l-26.945,0c-1.353,0 -2.623,-0.663 -3.396,-1.767c-0.773,-1.132 -0.966,-2.568 -0.469,-3.838l2.54,-6.819l0.552,-1.463c0.607,-1.602 2.153,-2.678 3.892,-2.678l28.989,0c1.519,0 2.899,0.831 3.617,2.125c0.359,0.635 0.524,1.326 0.524,2.016Z" style="fill:none;stroke:#93959a;stroke-width:3px;"/><path d="M1152.71,622.787l-5.602,15.587c-2.705,7.535 1.21,15.836 8.741,18.542c7.534,2.706 15.836,-1.207 18.542,-8.741l5.599,-15.587c2.708,-7.535 -1.207,-15.837 -8.738,-18.545c-7.534,-2.703 -15.836,1.209 -18.542,8.744Z" style="fill:none;stroke:#93959a;stroke-width:3px;"/><path d="M1167.05,623.665c-0.85,0 -1.646,0.528 -1.949,1.372c-0.387,1.077 0.171,2.262 1.25,2.651c0.23,0.08 0.467,0.121 0.699,0.121c0.85,0 1.645,-0.527 1.949,-1.372c0.387,-1.077 -0.171,-2.261 -1.251,-2.65c-0.231,-0.08 -0.466,-0.122 -0.698,-0.122" style="fill:none;stroke:#93959a;stroke-width:3px;stroke-linecap:butt;stroke-miterlimit:1.41421;"/><path d="M1173.1,591.506l-24.765,0c-2.291,0 -4.141,-1.85 -4.141,-4.141l0,-28.989c0,-2.291 1.85,-4.141 4.141,-4.141l17.228,0l-11.32,23.688c-0.966,2.07 -0.11,4.528 1.961,5.521l16.896,8.062Z" style="fill:none;stroke:#93959a;stroke-width:3px;"/><path d="M1200.37,567.818l-12.479,26.173c-0.994,2.043 -3.479,2.926 -5.522,1.932l-9.276,-4.417l-16.897,-8.062c-2.07,-0.994 -2.926,-3.451 -1.96,-5.522l11.32,-23.687l1.187,-2.485c0.469,-0.967 1.325,-1.74 2.346,-2.098c1.05,-0.387 2.181,-0.304 3.175,0.165l26.145,12.479c2.071,0.994 2.955,3.479 1.961,5.522Z" style="fill:none;stroke:#93959a;stroke-width:3px;"/><path d="M941.79,702.74l9.513,7.987" style="fill:none;stroke:#93959a;stroke-width:3px;"/><path d="M931.138,715.425c-3.503,-2.94 -3.959,-8.166 -1.018,-11.67l10.651,-12.686" style="fill:none;stroke:#93959a;stroke-width:3px;"/><path d="M979.263,677.423c-2.206,2.629 -6.124,2.971 -8.752,0.762c-2.628,-2.203 -2.971,-6.12 -0.765,-8.751c2.206,-2.626 11.414,-3.935 11.414,-3.935c0,0 0.309,9.296 -1.897,11.924Z" style="fill:none;stroke:#93959a;stroke-width:3px;"/><path d="M940.654,723.414c-1.471,1.753 -4.083,1.979 -5.833,0.511l-3.172,-2.665c-1.751,-1.468 -1.98,-4.083 -0.508,-5.836l31.948,-38.061c1.471,-1.747 4.083,-1.977 5.836,-0.508l3.173,2.664c1.75,1.469 1.979,4.081 0.508,5.834l-31.952,38.061Z" style="fill:none;stroke:#93959a;stroke-width:3px;"/><path d="M1020.09,658.677l-14.384,51.435l-0.663,-47.073c-0.027,-2.263 1.795,-4.141 4.086,-4.196l10.961,-0.166Z" style="fill:none;stroke:#93959a;stroke-width:3px;"/><path d="M1063.93,695.563c-7.731,9.911 -22.059,11.675 -31.971,3.948c-9.911,-7.73 -11.706,-22.034 -3.975,-31.971c3.892,-4.941 9.414,-7.868 15.184,-8.586c5.798,-0.72 11.844,0.773 16.786,4.636c9.939,7.733 11.706,22.031 3.976,31.973Z" style="fill:none;stroke:#93959a;stroke-width:3px;"/><path d="M1084.03,722.287l-6.157,21.949l-7.979,-2.237l6.157,-21.948c0.303,-1.077 1.435,-1.74 2.54,-1.436l4.003,1.132c1.077,0.304 1.739,1.436 1.436,2.54Z" style="fill:none;stroke:#93959a;stroke-width:3px;"/><path d="M1129.45,672.619l-52.76,-14.743l48.398,-0.69c2.264,-0.028 4.169,1.797 4.196,4.086l0.166,11.347Z" style="fill:none;stroke:#93959a;stroke-width:3px;"/><path d="M1063.93,695.563c-7.731,9.911 -22.059,11.675 -31.971,3.948c-9.911,-7.73 -11.706,-22.034 -3.975,-31.971c3.892,-4.941 9.414,-7.868 15.184,-8.586c5.798,-0.72 11.844,0.773 16.786,4.636c9.939,7.733 11.706,22.031 3.976,31.973Z" style="fill:none;stroke:#93959a;stroke-width:3px;"/><path d="M1120.39,715.274l-9.304,33.241l-1.298,4.638l-7.979,-2.236l-7.702,-2.154l8.337,-0.138l9.967,-35.587c0.138,-0.524 0.497,-0.994 0.966,-1.242c0.497,-0.276 1.049,-0.359 1.574,-0.193l4.003,1.104c1.104,0.304 1.739,1.463 1.436,2.567Zm-34.538,31.198l0,-0.028l6.156,-21.921c0.138,-0.524 0.497,-0.966 0.967,-1.242c0.469,-0.276 1.049,-0.331 1.573,-0.193l3.976,1.104c1.104,0.331 1.767,1.463 1.436,2.568l-6.129,21.921l-7.979,-2.209Zm-1.822,-24.185l-6.157,21.949l-7.979,-2.237l6.157,-21.948c0.303,-1.077 1.435,-1.74 2.54,-1.436l4.003,1.132c1.077,0.304 1.739,1.436 1.436,2.54Zm-20.099,-26.725c-7.731,9.911 -22.059,11.678 -31.971,3.948c-9.911,-7.73 -11.706,-22.031 -3.975,-31.97c3.892,-4.942 9.414,-7.869 15.184,-8.587c5.798,-0.717 11.844,0.773 16.786,4.639c9.939,7.73 11.706,22.031 3.976,31.97Zm0.8,34.234l-2.788,9.967l-7.979,-2.236l2.789,-9.967c0.303,-1.104 1.435,-1.739 2.54,-1.435l4.003,1.131c1.076,0.304 1.739,1.436 1.435,2.54Zm75.344,-54.195l-10.63,-2.981l-52.759,-14.743l-48.287,-13.501c-2.209,-0.607 -4.5,0.69 -5.108,2.899l-3.202,11.402l-14.384,51.435l-4.721,16.924c-0.608,2.208 0.69,4.472 2.871,5.107l2.181,0.608l58.723,16.426l50.772,14.191c2.208,0.608 4.5,-0.69 5.107,-2.871l3.396,-12.173l6.184,-22.061l12.728,-45.554c0.607,-2.181 -0.663,-4.473 -2.871,-5.108Z" style="fill:none;stroke:#93959a;stroke-width:3px;"/><path d="M1084.03,722.287l-6.157,21.949l-7.979,-2.237l6.157,-21.948c0.303,-1.077 1.435,-1.74 2.54,-1.436l4.003,1.132c1.077,0.304 1.739,1.436 1.436,2.54Z" style="fill:none;stroke:#93959a;stroke-width:3px;"/><path d="M1063.93,695.563c-7.731,9.911 -22.059,11.675 -31.971,3.948c-9.911,-7.73 -11.706,-22.034 -3.975,-31.971c3.892,-4.941 9.414,-7.868 15.184,-8.586c5.798,-0.72 11.844,0.773 16.786,4.636c9.939,7.733 11.706,22.031 3.976,31.973Z" style="fill:none;stroke:#93959a;stroke-width:3px;"/><path d="M1018.53,710.432l19.941,5.577" style="fill:none;stroke:#93959a;stroke-width:3px;"/><path d="M1020.29,719.525l23.93,6.689" style="fill:none;stroke:#93959a;stroke-width:3px;"/><path d="M1084.03,722.287l-6.157,21.949l-7.979,-2.237l6.157,-21.948c0.303,-1.077 1.435,-1.74 2.54,-1.436l4.003,1.132c1.077,0.304 1.739,1.436 1.436,2.54Z" style="fill:none;stroke:#93959a;stroke-width:3px;"/><path d="M1120.39,715.274l-9.304,33.241l-1.298,4.638l-7.979,-2.236l0.635,-2.292l9.967,-35.587c0.138,-0.524 0.497,-0.994 0.966,-1.242c0.497,-0.276 1.049,-0.359 1.574,-0.193l4.003,1.104c1.104,0.304 1.739,1.463 1.436,2.567Z" style="fill:none;stroke:#93959a;stroke-width:3px;"/><path d="M1084.88,673.083l15.955,4.461" style="fill:none;stroke:#93959a;stroke-width:3px;"/><path d="M1094.62,684.404l27.918,7.807" style="fill:none;stroke:#93959a;stroke-width:3px;"/><path d="M1084.41,690.151l19.941,5.576" style="fill:none;stroke:#93959a;stroke-width:3px;"/><path d="M1059.96,663.586l-28.006,35.929" style="fill:none;stroke:#93959a;stroke-width:3px;"/><path d="M1045.96,681.551l17.965,14" style="fill:none;stroke:#93959a;stroke-width:3px;"/><path d="M1043.16,658.947l2.802,22.606" style="fill:none;stroke:#93959a;stroke-width:3px;"/><path d="M967.846,628.645l-28.453,6.85c-1.483,0.359 -2.971,-0.555 -3.33,-2.038l-12.664,-52.607c-0.356,-1.486 0.558,-2.977 2.038,-3.333l28.453,-6.849c1.483,-0.357 2.974,0.554 3.33,2.037l12.664,52.61c0.359,1.483 -0.555,2.974 -2.038,3.33Z" style="fill:none;stroke:#93959a;stroke-width:3px;"/><path d="M968.188,618.336l-33.823,8.139l-9.302,-38.652l33.823,-8.14l9.302,38.653Z" style="fill:none;stroke:#93959a;stroke-width:3px;"/></g><g id="Line1" serif:id="Line"></g><g id="Line2" serif:id="Line"></g><g id="Line3" serif:id="Line"></g><g id="Line4" serif:id="Line"></g><g id="Line5" serif:id="Line"></g><g><path id="Shape_2_copy_9" d="M122.473,57.661l-8.923,5.787l-1.632,18.565l12.441,-13.905l-1.886,-10.447Z" style="fill:#fff;"/><path id="Shape_2" d="M98.652,68.198l1.037,18.613l8.738,6.047l2.222,-10.392l-11.997,-14.268Z" style="fill:#fff;"/><path id="Shape_2_copy" d="M112.5,82.372l1.888,10.448l8.923,-5.788l1.632,-18.564l-12.443,13.904Z" style="fill:#fff;"/><path id="Shape_2_copy_2" d="M124.699,88.251l-6.043,8.71l10.391,2.219l14.262,-11.956l-18.61,1.027Z" style="fill:#fff;"/><path id="Shape_2_copy_3" d="M129.147,101.089l-10.447,1.89l5.785,8.928l18.564,1.63l-13.902,-12.448Z" style="fill:#fff;"/><path id="Shape_2_copy_4" d="M123.266,113.295l-8.71,-6.043l-2.222,10.391l11.958,14.261l-1.026,-18.609Z" style="fill:#fff;"/><path id="Shape_2_copy_5" d="M108.603,107.358l-8.929,5.785l-1.629,18.565l12.448,-13.902l-1.89,-10.448Z" style="fill:#fff;"/><path id="Shape_2_copy_6" d="M93.872,100.928l-14.259,11.956l18.609,-1.022l6.041,-8.713l-10.391,-2.221Z" style="fill:#fff;"/><path id="Shape_2_copy_7" d="M98.437,88.204l-18.564,-1.629l13.902,12.452l10.447,-1.892l-5.785,-8.931Z" style="fill:#fff;"/><path id="Shape_2_copy_15" d="M79.517,87.148l-10.446,1.889l5.786,8.932l18.561,1.63l-13.901,-12.451Z" style="fill:#fff;"/><path id="Shape_2_copy_8" d="M97.992,68.345l-8.722,-6.053l-2.218,10.402l11.975,14.281l-1.035,-18.63Z" style="fill:#fff;"/><path id="Shape_2_copy_10" d="M138.814,75.659l-14.262,11.956l18.611,-1.025l6.044,-8.711l-10.393,-2.22Z" style="fill:#fff;"/><path id="Shape_2_copy_11" d="M148.065,102.141l-18.563,-1.631l13.901,12.451l10.448,-1.89l-5.786,-8.93Z" style="fill:#fff;"/><path id="Shape_2_copy_12" d="M123.9,113.146l1.025,18.61l8.713,6.042l2.219,-10.391l-11.957,-14.261Z" style="fill:#fff;"/><path id="Shape_2_copy_13" d="M98.554,131.999l1.89,10.448l8.93,-5.786l1.63,-18.565l-12.45,13.903Z" style="fill:#fff;"/><path id="Shape_2_copy_14" d="M79.758,113.52l-6.042,8.713l10.393,2.221l14.26,-11.957l-18.611,1.023Z" style="fill:#fff;"/><path id="Shape_2_copy_16" d="M84.565,124.741l12.896,6.816l1.565,-18.791l-14.461,11.975Z" style="fill:#fff;"/><path id="Shape_2_copy_17" d="M74.988,98.492l4.298,13.938l14.394,-12.179l-18.692,-1.759Z" style="fill:#fff;"/><path id="Shape_2_copy_18" d="M86.776,73.156l-6.795,12.875l18.776,1.587l-11.981,-14.462Z" style="fill:#fff;"/><path id="Shape_2_copy_19" d="M99.102,67.867l12.164,14.409l1.748,-18.705l-13.912,4.296Z" style="fill:#fff;"/><path id="Shape_2_copy_20" d="M125.489,68.573l-1.587,18.783l14.458,-11.986l-12.871,-6.797Z" style="fill:#fff;"/><path id="Shape_2_copy_21" d="M143.65,87.697l-14.408,12.164l18.704,1.746l-4.296,-13.91Z" style="fill:#fff;"/><path id="Shape_2_copy_22" d="M124.16,112.499l11.985,14.457l6.801,-12.873l-18.786,-1.584Z" style="fill:#fff;"/><path id="Shape_2_copy_23" d="M111.656,117.836l-1.746,18.702l13.912,-4.294l-12.166,-14.408Z" style="fill:#fff;"/><path d="M183.508,116.344c-1.825,0 -3.504,-0.341 -5.037,-1.02c-1.532,-0.68 -2.854,-1.628 -3.965,-2.842c-1.11,-1.214 -1.976,-2.656 -2.595,-4.327c-0.62,-1.67 -0.93,-3.504 -0.93,-5.501l0,-1.111c0,-2.153 0.322,-4.103 0.968,-5.851c0.646,-1.748 1.52,-3.237 2.622,-4.469c1.102,-1.231 2.372,-2.182 3.81,-2.854c1.438,-0.672 2.957,-1.007 4.559,-1.007c1.773,0 3.35,0.318 4.727,0.955c1.378,0.638 2.536,1.524 3.474,2.661c0.939,1.137 1.649,2.488 2.131,4.056c0.483,1.566 0.724,3.28 0.724,5.14l0,1.885l-19.942,0l0,0.595c0,1.532 0.233,2.974 0.698,4.326c0.465,1.352 1.119,2.527 1.963,3.526c0.843,0.999 1.851,1.787 3.022,2.364c1.171,0.576 2.471,0.865 3.9,0.865c1.654,0 3.113,-0.301 4.379,-0.904c1.266,-0.603 2.415,-1.567 3.448,-2.893l1.937,1.472c-0.465,0.672 -1.003,1.309 -1.614,1.912c-0.612,0.602 -1.322,1.127 -2.131,1.575c-0.809,0.448 -1.722,0.801 -2.738,1.06c-1.016,0.257 -2.153,0.387 -3.41,0.387Zm-0.568,-26.348c-1.171,0 -2.256,0.224 -3.254,0.672c-0.999,0.448 -1.882,1.085 -2.648,1.912c-0.767,0.826 -1.395,1.821 -1.886,2.983c-0.491,1.163 -0.822,2.45 -0.994,3.862l16.764,0l0,-0.336c-0.035,-1.171 -0.224,-2.303 -0.569,-3.397c-0.344,-1.093 -0.848,-2.062 -1.511,-2.906c-0.663,-0.844 -1.485,-1.519 -2.466,-2.028c-0.982,-0.507 -2.127,-0.762 -3.436,-0.762Z" style="fill:#fff;fill-rule:nonzero;"/><path d="M198.309,101.439c0,-2.031 0.297,-3.909 0.891,-5.63c0.594,-1.723 1.434,-3.208 2.519,-4.456c1.085,-1.249 2.393,-2.226 3.926,-2.932c1.532,-0.706 3.237,-1.059 5.115,-1.059c1.911,0 3.637,0.353 5.178,1.059c1.542,0.706 2.855,1.683 3.94,2.932c1.085,1.248 1.92,2.733 2.505,4.456c0.586,1.721 0.878,3.599 0.878,5.63l0,0.853c0,2.032 -0.292,3.909 -0.878,5.631c-0.585,1.722 -1.42,3.207 -2.505,4.456c-1.085,1.248 -2.394,2.221 -3.927,2.918c-1.532,0.698 -3.246,1.047 -5.14,1.047c-1.894,0 -3.607,-0.349 -5.14,-1.047c-1.532,-0.697 -2.845,-1.67 -3.939,-2.918c-1.094,-1.249 -1.938,-2.734 -2.532,-4.456c-0.594,-1.722 -0.891,-3.599 -0.891,-5.631l0,-0.853Zm3.1,0.853c0,1.532 0.207,2.992 0.62,4.378c0.413,1.386 1.016,2.601 1.808,3.642c0.792,1.042 1.774,1.873 2.945,2.493c1.17,0.62 2.514,0.93 4.029,0.93c1.515,0 2.855,-0.31 4.017,-0.93c1.162,-0.62 2.14,-1.451 2.932,-2.493c0.792,-1.041 1.395,-2.256 1.808,-3.642c0.413,-1.386 0.62,-2.846 0.62,-4.378l0,-0.853c0,-1.498 -0.207,-2.94 -0.62,-4.326c-0.413,-1.386 -1.016,-2.605 -1.808,-3.655c-0.792,-1.05 -1.778,-1.89 -2.958,-2.519c-1.18,-0.628 -2.527,-0.943 -4.042,-0.943c-1.499,0 -2.829,0.315 -3.991,0.943c-1.162,0.629 -2.14,1.469 -2.932,2.519c-0.792,1.05 -1.395,2.269 -1.808,3.655c-0.413,1.386 -0.62,2.828 -0.62,4.326l0,0.853Z" style="fill:#fff;fill-rule:nonzero;"/><path d="M246.38,108.724c0,-0.569 -0.099,-1.137 -0.297,-1.705c-0.198,-0.569 -0.568,-1.107 -1.111,-1.614c-0.542,-0.508 -1.3,-0.982 -2.273,-1.421c-0.973,-0.439 -2.234,-0.823 -3.784,-1.15c-1.55,-0.327 -2.932,-0.706 -4.146,-1.136c-1.214,-0.431 -2.238,-0.952 -3.074,-1.563c-0.835,-0.611 -1.468,-1.339 -1.898,-2.182c-0.43,-0.844 -0.646,-1.834 -0.646,-2.971c0,-1.033 0.228,-2.015 0.685,-2.945c0.456,-0.929 1.11,-1.739 1.962,-2.428c0.853,-0.689 1.886,-1.236 3.101,-1.64c1.213,-0.405 2.578,-0.607 4.094,-0.607c1.618,0 3.069,0.211 4.352,0.632c1.283,0.423 2.368,1.008 3.255,1.757c0.886,0.749 1.562,1.631 2.027,2.648c0.465,1.016 0.698,2.118 0.698,3.306l-3.1,0c0,-0.723 -0.159,-1.429 -0.478,-2.118c-0.318,-0.689 -0.783,-1.296 -1.395,-1.821c-0.611,-0.525 -1.368,-0.951 -2.273,-1.279c-0.904,-0.327 -1.933,-0.491 -3.086,-0.491c-1.206,0 -2.235,0.147 -3.087,0.44c-0.852,0.293 -1.55,0.672 -2.092,1.136c-0.543,0.465 -0.939,0.986 -1.189,1.563c-0.249,0.577 -0.375,1.158 -0.375,1.744c0,0.62 0.095,1.183 0.285,1.692c0.189,0.507 0.555,0.981 1.097,1.42c0.543,0.439 1.301,0.844 2.274,1.214c0.973,0.371 2.243,0.736 3.809,1.098c1.688,0.396 3.143,0.835 4.366,1.317c1.223,0.483 2.234,1.055 3.035,1.718c0.801,0.663 1.395,1.421 1.783,2.273c0.387,0.852 0.58,1.838 0.58,2.958c0,1.154 -0.24,2.208 -0.722,3.164c-0.483,0.955 -1.171,1.774 -2.067,2.454c-0.896,0.68 -1.981,1.21 -3.254,1.588c-1.275,0.379 -2.695,0.569 -4.263,0.569c-1.774,0 -3.34,-0.228 -4.701,-0.685c-1.36,-0.456 -2.505,-1.072 -3.435,-1.847c-0.93,-0.774 -1.632,-1.666 -2.106,-2.673c-0.473,-1.008 -0.71,-2.054 -0.71,-3.139l3.1,0c0.069,1.103 0.353,2.02 0.852,2.751c0.5,0.732 1.12,1.318 1.86,1.757c0.74,0.439 1.563,0.754 2.467,0.943c0.904,0.189 1.795,0.284 2.673,0.284c1.171,0 2.205,-0.138 3.1,-0.413c0.895,-0.276 1.649,-0.646 2.26,-1.111c0.612,-0.465 1.072,-0.999 1.382,-1.602c0.31,-0.602 0.465,-1.231 0.465,-1.885Z" style="fill:#fff;fill-rule:nonzero;"/><path d="M255.757,115.827l0,-37.609l11.571,0c2.532,0 4.852,0.435 6.962,1.304c2.109,0.87 3.918,2.092 5.424,3.668c1.507,1.576 2.682,3.466 3.526,5.67c0.844,2.204 1.266,4.65 1.266,7.336l0,1.705c0,2.686 -0.418,5.127 -1.253,7.322c-0.835,2.197 -2.015,4.082 -3.539,5.658c-1.523,1.575 -3.344,2.794 -5.463,3.654c-2.118,0.862 -4.451,1.292 -7,1.292l-11.494,0Zm7.749,-31.332l0,25.107l3.745,0c3.065,0 5.399,-1.012 7,-3.035c1.602,-2.024 2.403,-4.912 2.403,-8.666l0,-1.757c0,-3.823 -0.793,-6.72 -2.377,-8.692c-1.584,-1.971 -3.9,-2.957 -6.949,-2.957l-3.822,0Z" style="fill:#fff;fill-rule:nonzero;"/><path d="M310.828,108.078l-13.588,0l-2.582,7.749l-8.24,0l14,-37.609l7.181,0l14.078,37.609l-8.24,0l-2.609,-7.749Zm-11.495,-6.277l9.402,0l-4.727,-14.077l-4.675,14.077Z" style="fill:#fff;fill-rule:nonzero;"/><path d="M354.171,103.299c-0.137,1.912 -0.568,3.668 -1.291,5.27c-0.724,1.601 -1.722,2.974 -2.996,4.119c-1.275,1.146 -2.82,2.042 -4.637,2.687c-1.817,0.646 -3.887,0.969 -6.212,0.969c-2.411,0 -4.577,-0.418 -6.497,-1.253c-1.92,-0.835 -3.547,-2.036 -4.882,-3.603c-1.335,-1.568 -2.359,-3.466 -3.073,-5.696c-0.716,-2.23 -1.072,-4.731 -1.072,-7.504l0,-2.479c0,-2.773 0.37,-5.279 1.11,-7.517c0.741,-2.239 1.787,-4.142 3.139,-5.709c1.351,-1.567 2.992,-2.772 4.92,-3.616c1.929,-0.844 4.081,-1.266 6.458,-1.266c2.342,0 4.412,0.332 6.212,0.994c1.8,0.664 3.328,1.585 4.585,2.764c1.257,1.18 2.239,2.584 2.945,4.211c0.706,1.627 1.154,3.396 1.343,5.308l-7.749,0c-0.086,-1.119 -0.28,-2.109 -0.581,-2.971c-0.302,-0.861 -0.737,-1.584 -1.305,-2.169c-0.568,-0.586 -1.3,-1.029 -2.196,-1.33c-0.895,-0.302 -1.98,-0.453 -3.254,-0.453c-2.617,0 -4.568,0.952 -5.851,2.855c-1.283,1.903 -1.924,4.851 -1.924,8.847l0,2.531c0,1.946 0.142,3.651 0.426,5.115c0.284,1.463 0.732,2.686 1.343,3.667c0.612,0.982 1.404,1.718 2.377,2.209c0.972,0.491 2.148,0.736 3.526,0.736c1.222,0 2.277,-0.137 3.164,-0.413c0.886,-0.275 1.627,-0.693 2.221,-1.253c0.594,-0.559 1.055,-1.261 1.382,-2.105c0.328,-0.844 0.534,-1.825 0.62,-2.945l7.749,0Z" style="fill:#fff;fill-rule:nonzero;"/></g><g transform="matrix(1,0,0,1,116.071,80.1426)"><text x="55px" y="197.5px" style="font-family:'Roboto-Medium', 'Roboto';font-weight:500;font-size:90px;fill:#fff;">Management</text><text x="609.546px" y="197.5px" style="font-family:'Roboto-Thin', 'Roboto';font-weight:250;font-size:90px;fill:#fff;">Meeting</text></g><text x="168px" y="404px" style="font-family:'Roboto-Medium', 'Roboto';font-weight:500;font-size:64px;fill:#fff;">Monda<tspan x="366.344px 392.281px " y="404px 404px ">y,</tspan> Januar<tspan x="621.281px " y="404px ">y</tspan> 14, 2:00 PM UT<tspan x="1105.72px " y="404px ">C</tspan></text><g transform="matrix(1,0,0,1,-41,-53.3758)"><text x="209px" y="518.857px" style="font-family:'Roboto-Medium', 'Roboto';font-weight:500;font-size:36px;fill:#fff;">Meeting Room 1</text><text x="482.533px" y="518.857px" style="font-family:'Roboto-Thin', 'Roboto';font-weight:250;font-size:36px;fill:#fff;">/<tspan x="492.342px " y="518.857px ">/</tspan> discor<tspan x="609.518px " y="518.857px ">d</tspan>.io/eosdac</text></g><g id="Line6" serif:id="Line"></g></g></svg>